<svg xmlns="http://www.w3.org/2000/svg" viewBox="0 0 1750 830" font-family="Helvetica, Arial, sans-serif">
  <defs>
    <marker id="arrow" viewBox="0 0 10 10" refX="8" refY="5" markerWidth="7" markerHeight="7" orient="auto-start-reverse">
      <path d="M0,0 L10,5 L0,10 z" fill="#222"/>
    </marker>
    <marker id="arrowGreen" viewBox="0 0 10 10" refX="8" refY="5" markerWidth="7" markerHeight="7" orient="auto-start-reverse">
      <path d="M0,0 L10,5 L0,10 z" fill="#1e7d32"/>
    </marker>
    <marker id="arrowGold" viewBox="0 0 10 10" refX="8" refY="5" markerWidth="7" markerHeight="7" orient="auto-start-reverse">
      <path d="M0,0 L10,5 L0,10 z" fill="#a3781f"/>
    </marker>
    <marker id="arrowRed12v" viewBox="0 0 10 10" refX="8" refY="5" markerWidth="7" markerHeight="7" orient="auto-start-reverse">
      <path d="M0,0 L10,5 L0,10 z" fill="#b5391f"/>
    </marker>
  </defs>

  <rect x="0" y="0" width="1750" height="830" fill="#ffffff"/>

  <!-- Title -->
  <text x="20" y="30" font-size="20" font-weight="bold" fill="#111">RP2040-Zero to Vista-20P bus interface: complete circuit</text>
  <text x="20" y="50" font-size="13" fill="#555">Board/pin layout matches the Waveshare reference photo.</text>

  <g transform="translate(120,0)">
  <!-- ================= RP2040-Zero board ================= -->
  <g>
    <rect x="60" y="90" width="220" height="430" rx="18" fill="#173d73" stroke="#0d2648" stroke-width="2"/>
    <rect x="140" y="90" width="60" height="26" rx="6" fill="#c7ccd1" stroke="#8a9096" stroke-width="1.5"/>
    <text x="170" y="82" font-size="11" text-anchor="middle" fill="#333">USB-C</text>
    <text x="170" y="150" font-size="12" text-anchor="middle" fill="#dfe8f7" font-weight="bold">RP2040-Zero</text>
    <rect x="130" y="230" width="80" height="80" rx="6" fill="#0d2648"/>
    <text x="170" y="274" font-size="10" text-anchor="middle" fill="#7fa0d8">RP2040</text>
    <circle cx="95" cy="330" r="9" fill="#e9e9e9" stroke="#888"/>
    <text x="95" y="352" font-size="9" text-anchor="middle" fill="#dfe8f7">BOOT</text>
    <circle cx="245" cy="330" r="9" fill="#e9e9e9" stroke="#888"/>
    <text x="245" y="352" font-size="9" text-anchor="middle" fill="#dfe8f7">RESET</text>
  </g>

  <!-- Left column pins -->
  <g font-size="13">
    <circle cx="60" cy="112" r="5" fill="#cfcfcf" stroke="#666"/>
    <line x1="0" y1="112" x2="55" y2="112" stroke="#888" stroke-width="1.5"/>
    <text x="0" y="108" text-anchor="start" fill="#888">5V</text>

    <!-- GND: jogs off the GP0 row (right column, same y as the Green TX
         pin; a left/right column spatial coincidence, not a
         connection), then routes all the way to the shared GND bus on
         the right (see below). Colored to match the ECP bus's real
         BLACK wire, not a schematic-convention color. -->
    <circle cx="60" cy="150" r="6" fill="#222" stroke="#000" stroke-width="1.5"/>
    <polyline points="60,150 40,150 40,172 -95,172 -95,650 450,650 450,260"
               fill="none" stroke="#222" stroke-width="2.5"/>
    <text x="-10" y="167" text-anchor="start" fill="#222" font-weight="bold">GND</text>

    <circle cx="60" cy="188" r="5" fill="#cfcfcf" stroke="#666"/>
    <line x1="0" y1="188" x2="55" y2="188" stroke="#888" stroke-width="1.5"/>
    <text x="0" y="184" text-anchor="start" fill="#888">3V3</text>

    <circle cx="60" cy="226" r="5" fill="#cfcfcf" stroke="#666"/>
    <line x1="0" y1="226" x2="55" y2="226" stroke="#888" stroke-width="1.5"/>
    <text x="0" y="222" text-anchor="start" fill="#888">GP29</text>

    <!-- GP28: Green bus-monitor tap. Routes under the board, well clear
         of the board's right edge (x=280), up to its own 33k/10k divider
         at x=500. See Lane B below. Colored green: it taps the same
         physical Green wire the TX path drives. -->
    <circle cx="60" cy="264" r="5.5" fill="#1e7d32" stroke="#123f19" stroke-width="1.5"/>
    <polyline points="60,264 -70,264 -70,690 470,690 470,460"
               fill="none" stroke="#1e7d32" stroke-width="2"/>
    <text x="-70" y="260" text-anchor="start" fill="#1e7d32">GP28 (Green monitor tap)</text>

    <circle cx="60" cy="302" r="5" fill="#cfcfcf" stroke="#666"/>
    <line x1="-42" y1="302" x2="55" y2="302" stroke="#999" stroke-width="1.5" stroke-dasharray="3,3"/>
    <text x="-42" y="298" text-anchor="start" fill="#999">GP27 (dead, unused)</text>

    <!-- GP26: Yellow RX. Routes under the board, well clear of the
         board's right edge, up to its own 39k/10k divider at x=560,
         staggered right of and lower than GP28's. See Lane C below. -->
    <circle cx="60" cy="340" r="5.5" fill="#c8952a" stroke="#7a5a15" stroke-width="1.5"/>
    <polyline points="60,340 -58,340 -58,730 530,730 530,600"
               fill="none" stroke="#c8952a" stroke-width="2"/>
    <text x="-58" y="336" text-anchor="start" fill="#a3781f">GP26 (Yellow RX)</text>

    <circle cx="60" cy="378" r="5" fill="#cfcfcf" stroke="#666"/>
    <line x1="0" y1="378" x2="55" y2="378" stroke="#888" stroke-width="1.5"/>
    <text x="0" y="374" text-anchor="start" fill="#888">GP15</text>

    <circle cx="60" cy="416" r="5" fill="#cfcfcf" stroke="#666"/>
    <line x1="0" y1="416" x2="55" y2="416" stroke="#888" stroke-width="1.5"/>
    <text x="0" y="412" text-anchor="start" fill="#888">GP14</text>
  </g>

  <!-- Right column pins -->
  <g font-size="13">
    <circle cx="280" cy="112" r="5" fill="#cfcfcf" stroke="#666"/>
    <line x1="285" y1="112" x2="330" y2="112" stroke="#888" stroke-width="1.5"/>
    <text x="335" y="108" text-anchor="start" fill="#999" font-size="12">GP1 (unused)</text>

    <circle cx="280" cy="150" r="6.5" fill="#1e7d32" stroke="#123f19" stroke-width="1.8"/>
    <line x1="285" y1="150" x2="380" y2="150" stroke="#1e7d32" stroke-width="3"/>
    <text x="335" y="140" text-anchor="start" fill="#111" font-weight="bold" font-size="15">GP0</text>
    <text x="335" y="158" text-anchor="start" fill="#333" font-size="11">(Green TX)</text>

    <circle cx="280" cy="188" r="5" fill="#cfcfcf" stroke="#666"/>
    <line x1="285" y1="188" x2="330" y2="188" stroke="#888" stroke-width="1.5"/>
    <text x="335" y="192" text-anchor="start" fill="#999" font-size="12">GP2 - GP13 (unused)</text>
  </g>

  <!-- ================= Lane A: Green TX (GP0 -> Q1 pre-driver -> P1 high-side switch -> R_clamp/D1 clamp) ================= -->
  <!-- Revision: bench testing found Green idles at 0V and real keypads
       pull it UP to transmit (confirmed with our device fully
       disconnected from the bus): the opposite polarity from what was
       assumed this whole project. A low-side switch (the original
       2N2222+D1, and then the IRLZ44N MOSFET) can only pull a line DOWN
       toward GND; it can never pull an already-0V line any higher, which
       is why neither ever produced any effect on the bus regardless of
       how much was fixed around them. Fix: a high-side P-channel switch
       (P1, IRF4905) that sources current onto Green from +12V AUX (RED)
       instead. P1's gate can't be driven directly from 3.3V logic
       referenced to a 12V source, so Q1 (a simple 2N2222, reusing the
       exact base-drive circuit already proven correct all session) acts
       as a level-shifting pre-driver: GP0 high pulls Q1's collector (and
       P1's gate) down near 0V, giving P1 a strongly negative Vgs and
       turning it on; GP0 low lets the 10k pull-up hold P1's gate at
       +12V, Vgs=0, off. GP0 (not GP1): GP1 was the pin used during
       bring-up but was later found dead (like GP27 before it) and moved
       to GP0; see HARDWARE_ARCHITECTURE.md. -->
  <!-- Revision 2: with P1 driving straight from AUX, Green peaked at
       ~14.2V (scope-confirmed, cursor measurement), while a real
       keypad's own key-send peaks at only ~11.7V on the same bus, same
       reference, measured the same way. That ~2.5V gap was never
       noticed as significant until every other candidate (checksum, bit
       polarity, framing, batching, ack mechanism, response timing) had
       already been individually verified correct or matched against a
       real keypad's own captured bytes; at which point an output
       voltage well above what any real keypad ever produces became the
       most concrete remaining difference. R_clamp + D1 below hold P1's output
       to roughly a real keypad's own range instead of the raw AUX rail. -->
  <line x1="380" y1="150" x2="450" y2="150" stroke="#1e7d32" stroke-width="3" marker-end="url(#arrowGreen)"/>

  <g stroke="#222" stroke-width="2" fill="none">
    <polyline points="450,150 458,138 468,162 478,138 488,162 498,138 508,150"/>
  </g>
  <text x="478" y="122" font-size="12" text-anchor="middle" fill="#222" font-weight="bold">R_B</text>
  <text x="478" y="106" font-size="11" text-anchor="middle" fill="#555">1k&#937;</text>

  <line x1="508" y1="150" x2="560" y2="150" stroke="#1e7d32" stroke-width="2.5" marker-end="url(#arrowGreen)"/>

  <!-- Q1: 2N2222 pre-driver (NPN, open-collector level shifter) -->
  <g stroke="#222" stroke-width="2" fill="none">
    <line x1="560" y1="150" x2="590" y2="150"/>
    <line x1="590" y1="120" x2="590" y2="180"/>
    <line x1="590" y1="132" x2="610" y2="105"/>
    <line x1="590" y1="168" x2="610" y2="195"/>
    <polygon points="602,190 610,195 605,183" fill="#222" stroke="none"/>
  </g>
  <text x="595" y="145" font-size="12" fill="#222" font-weight="bold">Q1</text>
  <text x="590" y="228" font-size="12" text-anchor="middle" fill="#222" font-weight="bold">2N2222</text>
  <text x="585" y="112" font-size="11" fill="#555" text-anchor="end">collector</text>
  <text x="612" y="210" font-size="11" fill="#555">emitter</text>
  <text x="555" y="140" font-size="10.5" fill="#555" text-anchor="end">base</text>

  <!-- Q1 emitter -> GND bus -->
  <line x1="610" y1="195" x2="610" y2="260" stroke="#222" stroke-width="2.5"/>
  <line x1="610" y1="260" x2="450" y2="260" stroke="#222" stroke-width="2.5"/>
  <text x="530" y="278" font-size="11.5" text-anchor="middle" fill="#555">Q1 emitter -&gt; GND bus</text>

  <!-- Node A: Q1 collector / P1 gate / 10k pull-up junction. Placed
       between Green's rail (y=70, above) and the +12V AUX rail (y=135,
       below) so P1's drain and source align directly with each,
       no extra jogs needed. -->
  <circle cx="610" cy="105" r="4.5" fill="#1e7d32"/>
  <line x1="610" y1="105" x2="660" y2="105" stroke="#1e7d32" stroke-width="2" marker-end="url(#arrowGreen)"/>

  <!-- 10k pull-up: node A -> +12V AUX rail -->
  <g stroke="#222" stroke-width="2" fill="none">
    <polyline points="610,105 618,113 602,121 618,129 610,135"/>
  </g>
  <text x="596" y="122" font-size="11" text-anchor="end" fill="#555">10k&#937;</text>

  <!-- P1: IRF4905 P-channel MOSFET, high-side switch. Drain (top) ties
       directly to Green's rail; source (bottom) ties directly to the
       +12V AUX rail. Arrow on the source lead points outward from the
       channel: standard P-channel convention (opposite of N-channel's
       inward arrow). -->
  <g stroke="#222" stroke-width="2" fill="none">
    <line x1="660" y1="90" x2="660" y2="120"/>
    <line x1="680" y1="70" x2="680" y2="135"/>
  </g>
  <polygon points="673,132 680,135 675,124" fill="#222" stroke="none"/>
  <text x="750" y="105" font-size="12" text-anchor="middle" fill="#222" font-weight="bold">P1</text>
  <text x="750" y="120" font-size="12" text-anchor="middle" fill="#222" font-weight="bold">IRF4905</text>
  <text x="674" y="64" font-size="11" text-anchor="end" fill="#555">drain</text>
  <text x="695" y="152" font-size="11" fill="#555">source</text>
  <text x="635" y="120" font-size="10.5" fill="#555" text-anchor="middle">gate</text>

  <!-- P1 drain -> R_clamp -> clamped Green node. R_clamp (330 ohm) and D1
       (11V zener, shunt to GND) hold this node to roughly a real
       keypad's own ~11.7V output instead of P1 sourcing the raw ~14V AUX
       rail straight onto the bus; see the Revision 2 note above Lane A.
       Sized against the bench-measured AUX rail (~14V): normal operation
       drops ~3V across R_clamp into D1 (~9mA, well inside a 1W zener's
       rating); a dead short on Green drops the full AUX rail across
       R_clamp (~14V/330 ohm =~42mA, ~0.6W, inside a 1W resistor's
       rating with real margin). Both parts should be 1W: this is a
       field-bench fix, not a production design, and the margin is cheap
       insurance against a shorted bus. A short plain stub separates P1's
       own drain lead from R_clamp's zigzag below; sharing one pixel
       between "this is P1's terminal" and "this is where R_clamp
       starts" read as a tangle at this scale. -->
  <line x1="680" y1="70" x2="700" y2="70" stroke="#1e7d32" stroke-width="2.5"/>
  <line x1="700" y1="70" x2="755" y2="70" stroke="#1e7d32" stroke-width="2.5"/>
  <g stroke="#222" stroke-width="2" fill="none">
    <polyline points="700,70 710,58 722,82 734,58 746,82 755,70"/>
  </g>
  <text x="725" y="40" font-size="12" text-anchor="middle" fill="#222" font-weight="bold">R_clamp</text>
  <text x="725" y="53" font-size="11" text-anchor="middle" fill="#555">330&#937; 1W</text>

  <line x1="755" y1="70" x2="775" y2="70" stroke="#1e7d32" stroke-width="2.5"/>
  <circle cx="775" cy="70" r="4.5" fill="#1e7d32"/>

  <!-- D1: standard zener symbol (cathode bar+wings, anode triangle),
       drawn per convention with cathode (bar, top) at the clamped Green
       node and anode (triangle, bottom) at GND, exactly like every other
       zener shunt-to-ground clamp is drawn. Explicitly labeled "cathode"
       and "anode" (matching how Q1/P1's own leads are labeled above)
       since the symbol's forward-conduction arrow direction is easy to
       misread as "wrong" here: in normal use this would conduct anode
       to cathode (bottom to top), but a zener clamp instead conducts in
       REVERSE breakdown; current actually flows cathode to anode
       (top to bottom, Green to GND) whenever the node tries to rise
       above ~11V, sinking the rest of P1's drive current to ground
       through this branch. The symbol shape doesn't change between the
       two cases; only the labels here make which one applies explicit. -->
  <line x1="775" y1="70" x2="775" y2="150" stroke="#1e7d32" stroke-width="2"/>
  <line x1="761" y1="150" x2="789" y2="150" stroke="#222" stroke-width="2.5"/>
  <line x1="761" y1="150" x2="755" y2="143" stroke="#222" stroke-width="2"/>
  <line x1="789" y1="150" x2="795" y2="157" stroke="#222" stroke-width="2"/>
  <polygon points="763,178 787,178 775,150" fill="#222" stroke="#222" stroke-width="2"/>
  <text x="805" y="147" font-size="11" fill="#333" font-style="italic">cathode</text>
  <text x="805" y="182" font-size="11" fill="#333" font-style="italic">anode</text>
  <text x="805" y="222" font-size="12" fill="#222" font-weight="bold">D1</text>
  <text x="805" y="237" font-size="11" fill="#555">11V zener</text>
  <text x="805" y="251" font-size="11" fill="#555">(e.g. 1N4741A)</text>
  <line x1="775" y1="178" x2="775" y2="345" stroke="#222" stroke-width="2"/>
  <circle cx="775" cy="345" r="4.5" fill="#222"/>

  <!-- clamped Green node -> monitor tap junction -> GREEN bus, all the
       way to the panel terminal. Both the panel and our own GP28
       monitor tap read this clamped node, same as they'd both read the
       same real physical Green wire on the bench; see the monitor
       tap's own rewiring below (Lane B). -->
  <line x1="775" y1="70" x2="1250" y2="70" stroke="#1e7d32" stroke-width="2.5" marker-end="url(#arrowGreen)"/>
  <circle cx="800" cy="70" r="4.5" fill="#1e7d32"/>

  <!-- +12V AUX rail (RED): feeds P1's source and the pull-up, routed to
       the panel's RED terminal below Green's own row so the two never
       cross. -->
  <line x1="610" y1="135" x2="1200" y2="135" stroke="#b5391f" stroke-width="2.5"/>
  <line x1="1200" y1="135" x2="1200" y2="150" stroke="#b5391f" stroke-width="2.5"/>
  <line x1="1200" y1="150" x2="1250" y2="150" stroke="#b5391f" stroke-width="2.5" marker-end="url(#arrowRed12v)"/>
  <text x="900" y="127" font-size="11" text-anchor="middle" fill="#b5391f" font-weight="bold">+12V AUX rail (from Panel RED)</text>

  <!-- ================= Shared GND bus (x=450, y=260 to 640) ================= -->
  <!-- Everything ground-referenced taps this one vertical bus: Q1's
       emitter and the physical GND pin's wire at the top, the two
       divider bottom-resistors partway down, and the panel's BLACK
       terminal branching off partway down too. -->
  <line x1="450" y1="260" x2="450" y2="640" stroke="#222" stroke-width="3"/>
  <circle cx="450" cy="260" r="5" fill="#222"/>

  <!-- branch to panel BLACK (GND) terminal -->
  <circle cx="450" cy="345" r="4.5" fill="#222"/>
  <line x1="450" y1="345" x2="1250" y2="345" stroke="#222" stroke-width="3" marker-end="url(#arrow)"/>
  <text x="700" y="335" font-size="11.5" text-anchor="middle" fill="#222" font-weight="bold">dedicated GND wire (RP2040 GND -&gt; Panel GND)</text>

  <!-- branch to GP28 divider's bottom resistor -->
  <circle cx="450" cy="500" r="4.5" fill="#222"/>

  <!-- ================= Lane B: Green bus-monitor divider (GP28) ================= -->
  <!-- Divider node at x=500, well clear of the board's right edge
       (x=280) so no label or component overlaps the board silhouette. -->
  <line x1="470" y1="460" x2="500" y2="460" stroke="#1e7d32" stroke-width="2"/>
  <circle cx="500" cy="460" r="4" fill="#1e7d32"/>
  <text x="500" y="400" font-size="11" text-anchor="middle" fill="#1e7d32">Green bus-monitor</text>
  <text x="500" y="414" font-size="11" text-anchor="middle" fill="#1e7d32">divider (GP28)</text>
  <!-- R_top (33k), node -> up to the shared Green bus -->
  <g stroke="#222" stroke-width="2" fill="none">
    <polyline points="500,460 508,448 492,436 508,424 500,412"/>
  </g>
  <text x="516" y="440" font-size="11" text-anchor="start" fill="#555">33k&#937;</text>
  <!-- Jogs right to x=800 to join the Green rail on the clamped side of
       R_clamp/D1 (see Lane A), not directly at P1's raw drain output;
       this tap needs to read the same clamped voltage the panel itself
       sees, same as it would tap the same real physical Green wire on
       the actual bench build. -->
  <line x1="500" y1="412" x2="800" y2="412" stroke="#1e7d32" stroke-width="2"/>
  <line x1="800" y1="412" x2="800" y2="70" stroke="#1e7d32" stroke-width="2"/>
  <!-- R_bottom (10k), node -> down to GND bus. Colored black/GND here,
       not green: this end of the divider returns to ground, not Green. -->
  <g stroke="#222" stroke-width="2" fill="none">
    <polyline points="500,460 508,472 492,484 508,496 500,508"/>
  </g>
  <text x="516" y="485" font-size="11" text-anchor="start" fill="#555">10k&#937;</text>
  <line x1="500" y1="508" x2="500" y2="500" stroke="#222" stroke-width="2"/>
  <line x1="500" y1="500" x2="450" y2="500" stroke="#222" stroke-width="2"/>

  <!-- branch to GP26 divider's bottom resistor -->
  <circle cx="450" cy="640" r="4.5" fill="#222"/>

  <!-- ================= Lane C: Yellow RX divider (GP26) ================= -->
  <!-- Divider node at x=560, y=600, staggered right of and well below
       GP28's divider so the two don't visually collide. -->
  <line x1="530" y1="600" x2="560" y2="600" stroke="#c8952a" stroke-width="2"/>
  <circle cx="560" cy="600" r="4" fill="#c8952a"/>
  <text x="560" y="540" font-size="11" text-anchor="middle" fill="#a3781f">Yellow RX divider (GP26)</text>
  <!-- R_top (39k), node -> up to the shared Yellow bus -->
  <g stroke="#222" stroke-width="2" fill="none">
    <polyline points="560,600 568,588 552,576 568,564 560,552"/>
  </g>
  <text x="576" y="580" font-size="11" text-anchor="start" fill="#555">39k&#937;</text>
  <line x1="560" y1="552" x2="560" y2="460" stroke="#c8952a" stroke-width="2"/>
  <line x1="560" y1="460" x2="1250" y2="460" stroke="#c8952a" stroke-width="2" marker-end="url(#arrowGold)"/>
  <!-- R_bottom (10k), node -> down to GND bus. Colored black/GND here,
       not gold: this end of the divider returns to ground, not Yellow. -->
  <g stroke="#222" stroke-width="2" fill="none">
    <polyline points="560,600 568,612 552,624 568,636 560,648"/>
  </g>
  <text x="576" y="625" font-size="11" text-anchor="start" fill="#555">10k&#937;</text>
  <line x1="560" y1="648" x2="560" y2="640" stroke="#222" stroke-width="2"/>
  <line x1="560" y1="640" x2="450" y2="640" stroke="#222" stroke-width="2"/>

  <!-- ================= Vista-20P panel terminal block ================= -->
  <rect x="1250" y="40" width="220" height="480" rx="10" fill="#2b2b2b" stroke="#000" stroke-width="2"/>
  <text x="1360" y="26" font-size="14" text-anchor="middle" fill="#111" font-weight="bold">Vista-20P keypad bus</text>
  <text x="1360" y="500" font-size="10.5" text-anchor="middle" fill="#eee">4-conductor bus, non-isolated tap</text>

  <circle cx="1250" cy="70" r="6" fill="#1e7d32" stroke="#0d3d13" stroke-width="1.5"/>
  <text x="1265" y="65" font-size="13" fill="#eafbea" font-weight="bold">GREEN</text>
  <text x="1265" y="80" font-size="10.5" fill="#c9e8c9">keypad data in (TX + monitor)</text>

  <circle cx="1250" cy="150" r="6" fill="#b5391f" stroke="#6e2312" stroke-width="1.5"/>
  <text x="1265" y="145" font-size="13" fill="#f6d9d2" font-weight="bold">RED</text>
  <text x="1265" y="160" font-size="10.5" fill="#e0aa9e">+12V AUX -- feeds the P1 high-side</text>
  <text x="1265" y="173" font-size="10.5" fill="#e0aa9e">switch only (RP2040 itself is USB-powered)</text>

  <circle cx="1250" cy="345" r="6" fill="#dcdcdc" stroke="#000" stroke-width="1.5"/>
  <text x="1265" y="340" font-size="13" fill="#f0f0f0" font-weight="bold">BLACK</text>
  <text x="1265" y="355" font-size="10.5" fill="#cccccc">GND</text>

  <circle cx="1250" cy="460" r="6" fill="#c8952a" stroke="#5c4310" stroke-width="1.5"/>
  <text x="1265" y="455" font-size="13" fill="#f6e6c0" font-weight="bold">YELLOW</text>
  <text x="1265" y="470" font-size="10.5" fill="#d9c290">panel data out</text>

  <!-- ================= Legend ================= -->
  <!-- Colors match the ECP bus's real physical wire colors (Green,
       Yellow, Red, Black), not an abstract schematic convention: same
       scheme as docs/hardware/green-tx-photo-reference.html. -->
  <g font-size="12.5">
    <text x="60" y="740" font-weight="bold" fill="#111">Legend</text>

    <line x1="60" y1="758" x2="100" y2="758" stroke="#1e7d32" stroke-width="2.5"/>
    <text x="108" y="762" fill="#1e7d32">Green wire &#8212; TX path (GP0&#8594;Q1&#8594;P1&#8594;R_clamp/D1) + GP28 monitor tap (Panel GREEN)</text>

    <line x1="580" y1="758" x2="620" y2="758" stroke="#c8952a" stroke-width="2.5"/>
    <text x="628" y="762" fill="#a3781f">Yellow wire &#8212; GP26 RX divider (Panel YELLOW)</text>

    <line x1="980" y1="758" x2="1020" y2="758" stroke="#b5391f" stroke-width="2.5"/>
    <text x="1028" y="762" fill="#b5391f">Red wire &#8212; +12V AUX (Panel RED)</text>

    <line x1="60" y1="778" x2="100" y2="778" stroke="#222" stroke-width="3"/>
    <text x="108" y="782" fill="#222">Black wire &#8212; GND bus (physical GND pin, Q1 emitter, both dividers, Panel BLACK)</text>

    <circle cx="60" cy="798" r="5" fill="#cfcfcf" stroke="#666"/>
    <text x="75" y="802" fill="#777">Unused / not part of this circuit</text>
  </g>
  </g>
</svg>
